<?xml version="1.0" encoding="utf-8"?>
<!-- Generator: Adobe Illustrator 23.0.2, SVG Export Plug-In . SVG Version: 6.00 Build 0)  -->
<svg version="1.1" id="Layer_1" xmlns="http://www.w3.org/2000/svg" xmlns:xlink="http://www.w3.org/1999/xlink" x="0px" y="0px"
	 viewBox="0 0 600 600" style="enable-background:new 0 0 600 600;" xml:space="preserve">
<style type="text/css">
	.st0{display:none;}
	.st1{display:inline;}
	.st2{fill:#FFFFFF;}
</style>
<g class="st0">
	<path class="st1" d="M299.5,93.7c117-1.3,214.4,94.9,214.9,212.5c0.5,119.3-95.7,216-214.7,216c-117.2,0-214-96.1-214-214.7
		C85.7,190.1,182.4,93,299.5,93.7z M300.4,509.9c56.3-0.5,104.6-20.8,144-60.7c38-38.5,58.3-85.7,58.3-139.7
		c0-56.4-20.1-105.8-60.8-145.7c-38.6-37.8-85.5-58-139.6-58.3c-114.3-0.7-203.9,90.3-204.7,201.7C96.8,420,190.6,511,300.4,509.9z"
		/>
	<path class="st1" d="M413.4,300.1c0-2.8,0.1-5.7-0.5-8.5c-3.3-15.7-12.5-23.5-28-27c-3.8-0.9-6.3-1.6-5.8-6.5
		c0.5-5.4,0.5-10.9,0-16.3c-0.4-4.9-1.1-9.9-2.6-14.6c-0.3-0.9-0.5-1.8-0.6-2.5c-1-1-1.9-2.2-2.6-3.4c-11.5-11.9-24.4-13.5-38.5-5.2
		c-10.7-18.3-32.1-21.5-47.3-7c-16.6-14.9-35.8-11.4-47.1,6.8c-0.7-0.1-1.1-0.1-1.3-0.2c-18.2-12.2-43.8,0.9-43.4,25.1
		c0.6,31.1,0.1,62.3,0.1,93.5c0,17.5,3.4,34.4,11.7,50c19.9,37.8,51.6,57.7,94,60c22.8,1.2,43.9-5,62.8-17.8
		c30.2-20.4,47.1-48.7,48.9-85.3C413.9,327.4,413.4,313.7,413.4,300.1z M335.4,233.8c0.7-7.4,9.6-12.5,17.3-11.9
		c7.1,0.5,14.9,7.2,15.3,14.2c0.5,9.7,0.1,19.5,0.1,29.9h-33C335.1,255.5,334.3,244.6,335.4,233.8z M291.9,227.9
		c0.1-7.4,4.4-13.7,10.8-15.9c7.1-2.4,13.8-1.3,18.5,4.7c2.4,3,4,7.4,4.2,11.3c0.5,14,0.3,27.9,0.2,41.9c0,1.3-0.7,3-1.6,4
		c-6.4,7.2-8.2,15.4-5,24.5c1,2.8,0.2,4.2-2.2,5.5c-10.8,5.7-24.2-1.8-24.9-14.1c0-0.3,0-0.7,0-1c0-10.1,0-20.3,0-30.5
		C291.9,248.2,291.8,238,291.9,227.9z M259.8,212.1c11.2-4.6,23.1,3.5,23.3,15.9c0.2,10.3,0,20.6,0,31c0,9.3,0,18.6,0,28
		c0,11.1-7,18.9-16.9,18.9c-10,0-17-7.6-17-18.8c-0.1-19.1,0.1-38.3-0.1-57.4C249.1,220.6,254,214.5,259.8,212.1z M207,238.8
		c0.1-9.1,6.8-16.4,15.6-16.9c8.9-0.5,17.5,6,17.8,15.1c0.6,17.8,0.7,35.6,0.2,53.4c-0.3,9.3-9,16.1-17.7,15.4
		c-9.6-0.7-15.9-7.6-15.9-17.6c0-4.2,0-8.3,0-12.5c0-4,0-7.9,0-11.9h0C207,255.5,206.9,247.2,207,238.8z M400.9,352.6
		c-6.1,40.8-38.8,72.2-79.4,79.3c-45.5,7.9-90.9-17.5-107.8-60.5c-4.3-10.9-6.9-22.2-6.7-34.1c0.2-9.1,0-18.3,0-28.4
		c14.5,8.4,27,7.3,38-5.3c5.6,6.6,12.3,10.7,21.1,10.6c8.8,0,15.7-3.7,21.3-10.9c6.7,8.6,15.3,12,25.7,10.5c1.1-0.2,2.5-0.1,3.4-0.8
		c6-4.5,11.5-2.5,18-0.2c6.2,2.2,13.5,1.5,20.2,1.5c4.6,0,6.1,1.5,4.6,6.4c-2.6,0.4-5.6,0.8-8.5,1.2c-19.1,2.7-35.6,10.5-48.5,25.1
		c-2.3,2.6-4.6,5.5-5.9,8.6c-0.8,1.8-0.3,5.3,1,6.4c2.3,1.9,4.8,0.7,6.5-2.1c12.2-20,31.5-27.6,53.5-30.1c1.1-0.1,2.3,0,3.5-0.1
		c6.6-0.2,7.4-1.1,7.4-7.7c0-3.3-0.1-6.7,0-10c0.1-4.3-1.6-6.4-6.2-6.2c-6.5,0.3-13,0.1-19.5,0c-9.9-0.1-16.9-6.9-16.8-15.9
		c0.1-7.2,6.8-15.8,16.9-15.4c12,0.5,24,0,36,0.1c12.7,0.1,23.2,8.5,23.6,21.1C403,314.8,403.6,334,400.9,352.6z"/>
</g>
<g>
	<path class="st2" d="M125.7,171.3c1.3-2,2.5-4.2,4-6.1c33.7-39.8,76.3-64.9,127.5-74.5c43.8-8.2,86.5-3.2,127.4,14.8
		c25.5,11.2,48,26.9,67.6,46.8c19.6,19.9,34.9,42.7,45.7,68.4c14.3,33.9,19.6,69.2,16.1,105.9c-3.3,34.7-14.6,66.8-33.2,96.1
		c-13.2,20.8-29.7,38.8-49.1,54c-0.5,0.4-1.2,0.4-1.8,0.6c-2.4-2.4-4.8-4.8-7.1-7.1c1.2-1.5,2.2-3.2,3.7-4.4
		c42.6-35.3,68.5-80.1,75.1-135.1c7-57.4-7.6-109.4-44-154.6c-35.7-44.3-82.2-70.4-138.8-76c-68.9-6.8-127.3,15.8-174.7,66.5
		c-3.7,3.9-7.5,7.7-11.2,11.6C130.4,176,128,173.7,125.7,171.3z"/>
	<path class="st2" d="M125.7,171.3c2.4,2.4,4.8,4.7,7.1,7.1c-1,1.9-1.7,3.9-2.9,5.6c-13.4,18.5-23.7,38.6-30.2,60.4
		c-15.9,52.9-12,104.4,12.9,153.7c22.4,44.6,56.9,77,102.9,96.8c43.4,18.7,88.1,21.7,133.8,10c3.1-0.8,6.3-1,9.4-1.5
		c-4.6,4.7-9.3,9.3-13.9,14c-7.4,1.6-14.8,3.8-22.3,4.7c-31.7,3.7-62.9,0.9-93.1-9.1c-33.7-11.1-63.1-29.4-88.1-54.8
		c-25.5-25.9-43.4-56.3-53.8-90.9c-9.4-31.5-11.3-63.8-6.2-96.3c5.5-35.2,19.3-66.9,40.2-95.6C122.6,173.9,124.2,172.7,125.7,171.3z
		"/>
	<path class="st2" d="M344.8,517.4c4.6-4.7,9.3-9.3,13.9-14c2.7-1.3,5.2-2.9,8-3.9c18.4-6.6,35.5-15.5,51.2-27.1
		c1.4-1,3.2-1.4,4.8-2.1c2.4,2.4,4.8,4.8,7.1,7.1c-7.1,5.1-13.9,10.7-21.3,15.3c-18.6,11.3-38.6,19.4-59.7,24.6
		C347.5,517.7,346.1,517.4,344.8,517.4z"/>
</g>
<g id="Layer_3" class="st0">
	<path class="st1" d="M304.8,520.7C185.7,521.6,87.2,423.2,86.6,304C85.9,183.9,184.1,84.2,305.5,84.4
		C425,84.6,522.6,182.3,523,302.7C523.3,422.6,424.5,521.6,304.8,520.7z M305,509c114.1-0.4,210.1-94.7,205.9-214.4
		c-3.7-106.9-93.8-202.1-214-198C189.6,100.3,98.6,189.4,98.7,303C98.8,416.1,191.1,508.7,305,509z"/>
	<path class="st1" d="M241.9,213.6c0-6.5,0-12.5,0-18.5c0.1-20.5,18.8-32.6,37.6-24.4c0.6,0.3,1.2,0.4,1.9,0.7
		c3.5-14.1,12.4-22.2,24.8-22.9c12.5-0.7,20.8,6.2,27.2,22.6c9.1-3.5,18.1-4.8,27,1c7.9,5.1,11.9,12.5,12,21.7
		c0.1,20.1-0.2,40.2-0.3,60.3c0,1,0.1,2,0.3,3.7c2-0.6,3.7-1,5.3-1.6c11.6-3.7,28.2,1.8,32.1,14c1,3.1,1.7,6.5,1.7,9.7
		c0.3,26.6,1,53.3,0.4,79.9c-1.2,50.4-39,93.4-88.3,100.6c-57.5,8.4-108.6-29-119.2-85.1c-1.1-6-1.4-12.2-1.4-18.4
		c-0.1-39.1,0.7-78.3-0.4-117.4c-0.5-20,18.1-35,36.8-26.8C239.9,213,240.5,213.2,241.9,213.6z M362,335.1c0-10.6,0-20.8,0-30.9
		c0-36.5,0-73,0-109.5c0-10.2-6.8-16.8-16.6-16.3c-8.3,0.4-14.4,7.4-14.4,16.7c0,32.5,0.1,65-0.2,97.5c0,4,3,11.3-4,11.2
		c-6.5,0-3.8-7-3.8-11c-0.2-38.5,0-77-0.3-115.5c0-4.4-1.5-9.4-3.9-12.9c-3.8-5.6-10.6-6.9-16.5-4.8c-6.2,2.2-10.4,7.8-10.4,15
		c-0.1,40.3,0,80.6,0,121c0,1.2,0.5,2.6-0.1,3.4c-1.1,1.7-2.7,3.1-4.1,4.6c-1.4-1.5-3.3-2.9-4.2-4.7c-0.7-1.5-0.2-3.6-0.2-5.4
		c0-32.3,0-64.7,0-97c0-2.3,0-4.7-0.5-6.9c-2.1-7.6-8.9-12-16.7-11.1c-7.7,0.9-13.5,7.5-13.5,16c-0.1,36.2,0,72.3,0,108.5
		c0,1.8,0.4,3.9-0.3,5.4c-0.7,1.5-2.8,3.8-3.8,3.6c-1.6-0.4-3.1-2.4-4.2-4c-0.5-0.8-0.1-2.3-0.1-3.4c0-22,0.1-44-0.1-66
		c-0.1-3.8-1-8.1-3-11.3c-3.7-6-11-7.7-17.6-5.4c-6.5,2.3-10.2,7.7-10.2,15.5c0,40-0.2,80,0,120c0.3,56.3,49.8,99.4,104.4,93.2
		c45.9-5.2,81.5-42.4,83.7-88.6c0.8-18,0.3-36,0.3-54c0-10,0.3-20-0.4-29.9c-0.5-8.5-7.6-14-16.1-13.6c-8.6,0.4-14.9,6.5-14.9,14.5
		c0.1,18.6,0.3,37.2,0.4,55.8c0,1.5,0,3-0.1,4.5c-0.3,3-1.8,4.4-4.9,4.4c-3.3,0-6.7,0.1-10,0.7c-19.1,3.1-35.6,10.8-46.3,27.9
		c-1.6,2.6-3.7,4.3-6.5,2.8c-2.9-1.6-2.7-4.7-0.7-6.9c5.5-6.3,10.7-13.3,17.2-18.4C331.3,340.2,346,336.6,362,335.1z"/>
</g>
<g>
	<path class="st2" d="M270.8,341.4c0-7.3,1.1-14.3,3.4-20.9c2.3-6.6,6.5-14.3,12.6-23c7.1-10.1,12-18.8,14.5-26.1
		c2.6-7.3,3.9-15,3.9-23.1c0-7.1-1.4-12.3-4.2-15.6c-2.8-3.3-6.8-4.9-12.2-4.9c-5.3,0-9.4,1.6-12.2,4.9c-2.8,3.3-4.2,8.4-4.2,15.6
		v22.5h-30.8v-20.5c0-16.8,4-29.7,12.2-38.7c8.1-9,20-13.5,35.6-13.5c15.8,0,27.8,4.5,36,13.5c8.2,9,12.3,21.9,12.3,38.7
		c0,9.1-1.6,17.8-4.9,26.2c-3.3,8.4-8.8,17.8-16.8,28.3c-6.3,8.5-10.7,15.6-13.2,21.2c-2.5,5.6-3.7,11.1-3.7,16.5v11.3h-28.5V341.4z
		 M269.3,377.3h31.4v31.4h-31.4V377.3z"/>
</g>
</svg>
