<?xml version="1.0" encoding="utf-8"?>
<!-- Generator: Adobe Illustrator 23.0.2, SVG Export Plug-In . SVG Version: 6.00 Build 0)  -->
<svg version="1.1" xmlns="http://www.w3.org/2000/svg" xmlns:xlink="http://www.w3.org/1999/xlink" x="0px" y="0px"
	 viewBox="0 0 600.01 600" style="enable-background:new 0 0 600.01 600;" xml:space="preserve">
<style type="text/css">
	.st0{fill:#FFFFFF;}
	.st1{display:none;}
	.st2{display:inline;}
</style>
<g id="Layer_1">
	<path class="st0" d="M299.46,93.69c116.97-1.29,214.37,94.95,214.88,212.45c0.53,119.34-95.68,216.05-214.66,216.01
		c-117.21-0.04-214.01-96.06-214-214.74C85.68,190.1,182.45,92.97,299.46,93.69z M300.38,509.94c56.32-0.47,104.62-20.77,144-60.73
		c37.97-38.53,58.3-85.66,58.26-139.74c-0.05-56.42-20.14-105.84-60.83-145.67c-38.64-37.82-85.51-57.99-139.58-58.33
		c-114.33-0.7-203.85,90.32-204.66,201.68C96.75,420.05,190.61,510.97,300.38,509.94z"/>
	<path class="st0" d="M413.39,300.06c0-2.83,0.13-5.73-0.45-8.46c-3.34-15.69-12.48-23.5-28.05-27.01
		c-3.78-0.85-6.32-1.64-5.84-6.49c0.54-5.39,0.46-10.9,0.04-16.31c-0.38-4.93-1.1-9.95-2.61-14.63c-0.3-0.93-0.51-1.75-0.58-2.51
		c-0.97-1.04-1.85-2.18-2.65-3.39c-11.51-11.88-24.42-13.5-38.46-5.2c-10.67-18.32-32.15-21.47-47.29-7.01
		c-16.63-14.85-35.84-11.43-47.12,6.75c-0.68-0.11-1.07-0.06-1.31-0.22c-18.18-12.17-43.82,0.88-43.37,25.07
		c0.58,31.14,0.07,62.3,0.14,93.45c0.04,17.55,3.45,34.38,11.7,50.02c19.94,37.84,51.57,57.74,94.02,60.04
		c22.75,1.23,43.9-5.02,62.8-17.77c30.21-20.37,47.1-48.69,48.86-85.33C413.87,327.41,413.4,313.72,413.39,300.06z M335.36,233.79
		c0.73-7.39,9.56-12.46,17.32-11.9c7.06,0.51,14.92,7.25,15.28,14.21c0.5,9.73,0.13,19.5,0.13,29.88h-33
		C335.09,255.51,334.3,244.56,335.36,233.79z M291.9,227.87c0.09-7.38,4.38-13.71,10.75-15.9c7.12-2.44,13.84-1.29,18.51,4.68
		c2.37,3.03,4.02,7.43,4.16,11.28c0.5,13.96,0.27,27.95,0.18,41.93c-0.01,1.34-0.68,2.95-1.58,3.96c-6.44,7.24-8.24,15.41-4.95,24.5
		c1.03,2.84,0.25,4.22-2.22,5.53c-10.8,5.7-24.22-1.84-24.86-14.06c-0.02-0.33-0.02-0.67-0.02-1c0-10.15,0-20.31,0-30.46
		C291.87,248.18,291.77,238.02,291.9,227.87z M259.82,212.1c11.19-4.63,23.06,3.48,23.27,15.92c0.18,10.32,0.04,20.64,0.04,30.96
		c0,9.32,0.03,18.65,0,27.97c-0.04,11.09-7.03,18.89-16.88,18.89c-9.96,0-16.97-7.6-17.03-18.81c-0.1-19.14,0.05-38.29-0.09-57.44
		C249.07,220.55,253.99,214.51,259.82,212.1z M206.98,238.84c0.08-9.15,6.82-16.43,15.58-16.95c8.91-0.53,17.48,6.02,17.78,15.07
		c0.6,17.77,0.74,35.59,0.2,53.36c-0.28,9.27-9.03,16.1-17.66,15.43c-9.6-0.74-15.85-7.64-15.9-17.59c-0.02-4.16,0-8.32,0-12.48
		c0-3.96,0-7.92,0-11.88h-0.02C206.97,255.48,206.91,247.16,206.98,238.84z M400.85,352.63c-6.14,40.79-38.81,72.21-79.45,79.26
		c-45.46,7.89-90.92-17.52-107.8-60.54c-4.27-10.88-6.89-22.22-6.66-34.09c0.18-9.15,0.04-18.31,0.04-28.36
		c14.49,8.36,26.99,7.26,38.03-5.26c5.58,6.64,12.27,10.7,21.11,10.65c8.81-0.04,15.68-3.74,21.34-10.87
		c6.71,8.61,15.28,11.96,25.68,10.48c1.15-0.16,2.53-0.12,3.38-0.75c6.05-4.47,11.48-2.49,17.99-0.19
		c6.17,2.17,13.45,1.51,20.24,1.45c4.65-0.04,6.09,1.51,4.65,6.39c-2.65,0.37-5.56,0.78-8.47,1.19
		c-19.09,2.74-35.63,10.45-48.51,25.12c-2.29,2.61-4.56,5.47-5.88,8.61c-0.75,1.78-0.34,5.33,0.95,6.4c2.28,1.9,4.84,0.68,6.54-2.1
		c12.23-19.98,31.45-27.64,53.55-30.11c1.15-0.13,2.33-0.04,3.5-0.08c6.56-0.23,7.38-1.08,7.41-7.73c0.02-3.33-0.06-6.67,0.05-10
		c0.13-4.34-1.58-6.41-6.21-6.23c-6.49,0.26-13,0.13-19.5,0.05c-9.89-0.12-16.91-6.88-16.8-15.94c0.09-7.22,6.81-15.79,16.91-15.4
		c11.98,0.47,23.99,0.04,35.99,0.14c12.7,0.11,23.25,8.54,23.56,21.1C402.97,314.77,403.65,334.03,400.85,352.63z"/>
</g>
<g id="Layer_2" class="st1">
	<path class="st2" d="M125.66,171.3c1.33-2.04,2.46-4.24,4.02-6.08c33.72-39.81,76.28-64.95,127.46-74.49
		c43.79-8.16,86.52-3.22,127.41,14.81c25.49,11.24,47.99,26.89,67.61,46.82c19.63,19.93,34.86,42.68,45.73,68.39
		c14.34,33.92,19.58,69.23,16.07,105.88c-3.33,34.74-14.58,66.76-33.24,96.13c-13.21,20.8-29.66,38.8-49.06,54.05
		c-0.48,0.38-1.21,0.43-1.83,0.64c-2.38-2.37-4.76-4.75-7.14-7.12c1.22-1.46,2.24-3.16,3.68-4.36
		c42.61-35.29,68.48-80.15,75.15-135.13c6.96-57.42-7.59-109.36-43.99-154.55c-35.71-44.33-82.16-70.39-138.79-75.99
		c-68.86-6.81-127.31,15.81-174.7,66.48c-3.68,3.93-7.49,7.73-11.24,11.6C130.41,176.02,128.03,173.66,125.66,171.3z"/>
	<path class="st2" d="M125.66,171.3c2.38,2.36,4.76,4.71,7.14,7.07c-0.96,1.86-1.71,3.88-2.93,5.56
		c-13.4,18.49-23.65,38.57-30.22,60.44c-15.88,52.91-11.99,104.43,12.86,153.74c22.45,44.56,56.95,76.98,102.93,96.79
		c43.43,18.71,88.08,21.69,133.83,10.04c3.06-0.78,6.26-1.03,9.4-1.53c-4.63,4.66-9.26,9.33-13.89,13.99
		c-7.42,1.61-14.78,3.84-22.29,4.72c-31.66,3.71-62.85,0.86-93.12-9.12c-33.7-11.12-63.15-29.36-88.12-54.75
		c-25.46-25.88-43.39-56.27-53.78-90.94c-9.45-31.54-11.26-63.75-6.2-96.3c5.47-35.19,19.32-66.88,40.19-95.59
		C122.59,173.85,124.24,172.67,125.66,171.3z"/>
	<path class="st2" d="M344.77,517.41c4.63-4.66,9.26-9.33,13.89-13.99c2.66-1.31,5.23-2.87,8-3.87
		c18.37-6.62,35.51-15.52,51.24-27.12c1.37-1.01,3.18-1.41,4.79-2.1c2.38,2.37,4.76,4.75,7.14,7.12
		c-7.09,5.12-13.87,10.74-21.32,15.26c-18.58,11.28-38.56,19.4-59.68,24.63C347.55,517.66,346.13,517.4,344.77,517.41z"/>
	<path class="st2" d="M375.79,423.36c-3.41,3.95-6.32,8.5-10.29,11.76c-35.44,29.03-74.76,34.75-115.6,14.46
		c-36.35-18.06-55.73-49.1-57.07-90.15c-0.7-21.61-0.16-43.26-0.17-64.89c0-9.47,0.29-18.95-0.03-28.42
		c-0.38-11.02,3.65-19.66,13.21-25.07c9.93-5.61,19.81-4.54,29.54,2.41c8.63-16.15,21.66-19.87,38.84-12.5c0-4.41-0.02-8.11,0-11.81
		c0.11-15.16-0.13-30.33,0.48-45.47c0.5-12.27,9.47-21.49,21.82-23.79c10.6-1.97,22.84,4.29,27.66,14.55
		c0.93,1.98,0.44,4.62,0.6,6.96c-2.34,2.34-4.67,4.68-7.01,7.02c-0.58-2.16-1.2-4.31-1.74-6.47c-2.39-9.54-12.41-14.64-21.46-10.91
		c-6.96,2.87-9.99,7.9-9.99,16.71c-0.03,44.32-0.01,88.63-0.1,132.95c-0.03,16.66-13.43,28.77-29.02,25.38
		c-5.96-1.3-11.29-5.48-17.27-8.53c-9.63,10.88-21.69,11.98-34.92,4.28c-0.25,0.63-0.46,0.92-0.47,1.21
		c-0.04,7.33-0.09,14.66-0.07,21.99c0.09,35.87,15.5,63.32,45.73,82.38c30.9,19.48,73.19,17.91,102.5-3.84
		c6.62-4.91,12.54-10.79,18.78-16.22C371.75,419.35,373.77,421.35,375.79,423.36z M275.9,282.9c0-9.99,0.12-19.99-0.03-29.98
		c-0.14-9.17-6.52-15.62-15.21-15.72c-9.66-0.11-17.26,6.67-17.62,15.81c-0.18,4.62-0.3,9.26-0.24,13.88
		c0.18,14.97,0.36,29.95,0.72,44.91c0.23,9.56,7.46,16.72,16.4,16.59c9.05-0.14,15.9-7.38,15.97-17.01
		C275.96,301.89,275.91,292.4,275.9,282.9z M234.91,287.88c0.03,0,0.07,0,0.1,0c0-7.64-0.17-15.28,0.04-22.92
		c0.27-9.97-5.82-16.75-15.87-17.28c-8.82-0.46-16.38,6.94-16.43,16.35c-0.09,15.96-0.09,31.91,0,47.87
		c0.05,9.21,7.08,16.4,15.86,16.51c9.06,0.12,16.14-7,16.28-16.58C235,303.85,234.91,295.86,234.91,287.88z"/>
	<path class="st2" d="M375.79,423.36c-2.02-2-4.04-4.01-6.05-6.01c0.41-0.88,0.69-1.86,1.26-2.62
		c10.31-13.67,17.72-28.72,18.87-45.93c1.05-15.74,0.87-31.58,0.96-47.37c0.08-12.57-8.52-22.21-21.05-22.79
		c-12.63-0.59-25.31-0.42-37.95-0.05c-8.67,0.26-14.76,7.19-14.44,15.33c0.34,8.58,6.7,14.47,15.77,14.53
		c6.33,0.04,12.66,0.14,18.98-0.04c4.21-0.12,6.21,1.57,6.12,5.83c-0.07,3.49,0.14,6.99,0.07,10.49c-0.1,5.43-1.3,6.5-6.88,6.66
		c-2.32,0.07-4.64,0.39-6.96,0.51c-11.04,0.56-20.88,5.03-30.73,9.46c-1.67-1.69-3.34-3.39-5.01-5.08c4.45-2.63,8.6-6.15,13.4-7.69
		c8.78-2.8,17.93-4.43,27.2-6.62c0-1.05,0-2.77,0-5.26c-6.65,0-13.01,0.54-19.24-0.11c-13.1-1.36-21.89-11.83-21.25-24.49
		c0.61-12.24,10.52-21.6,23.39-21.93c6-0.15,12.04-0.47,17.99,0.08c5.44,0.51,7.4-1.59,8.71-6.66
		c7.39-28.47,15.09-56.85,22.81-85.23c2.77-10.2-1.32-18.8-10.58-21.45c-9.3-2.67-17.68,2.25-20.49,12.4
		c-5.14,18.57-10.06,37.21-15.1,55.81c-3.39,12.51-6.71,25.04-10.38,37.47c-0.46,1.57-3.25,3.86-4.23,3.54
		c-1.7-0.55-2.98-2.77-4.11-4.5c-0.46-0.7-0.12-1.95-0.12-2.95c0-31.5-0.02-63,0.04-94.49c0-1.92,0.63-3.85,0.97-5.77
		c2.34-2.34,4.67-4.68,7.01-7.02c0.67,1.97,1.9,3.93,1.92,5.9c0.16,18.15,0.11,36.31,0.11,54.46c0,1.16,0,2.31,0.88,3.67
		c2.41-8.81,4.82-17.61,7.21-26.43c2.22-8.18,4.07-16.48,6.72-24.52c3.86-11.74,12.9-18.18,24.64-18.33
		c11.49-0.15,21.48,6.31,25.02,17.72c1.53,4.95,1.64,11.02,0.35,16.07c-6.76,26.59-14.18,53.01-21.35,79.5
		c-0.73,2.71-1.27,5.47-1.7,7.38c6.4,2.56,12.69,4.3,18.17,7.45c8.08,4.65,13.41,12.43,13.74,21.54
		c0.81,22.58,2.74,45.35-2.83,67.64c-3.59,14.36-10.31,27.35-19.82,38.79C377.37,422.8,376.48,423,375.79,423.36z"/>
	<path class="st2" d="M313.76,361.35c-7.17,5.8-14.59,11.28-19.1,19.76c-0.68,1.27-3.99,1.75-5.92,1.47
		c-0.78-0.11-2.14-3.78-1.53-4.88c4.98-8.89,11.26-16.69,20.55-21.52c0.24-0.13,0.65,0.05,0.98,0.09
		C310.42,357.96,312.09,359.66,313.76,361.35z"/>
</g>
<g id="Layer_3" class="st1">
	<path class="st2" d="M304.77,520.69c-119.1,0.94-217.52-97.5-218.2-216.68C85.88,183.9,184.15,84.23,305.46,84.42
		c119.54,0.19,217.18,97.84,217.54,218.32C523.35,422.62,424.51,521.63,304.77,520.69z M304.95,509.05
		c114.15-0.39,210.09-94.69,205.93-214.38c-3.71-106.87-93.8-202.12-214.05-198.02c-107.21,3.66-198.2,92.79-198.13,206.38
		C98.76,416.15,191.09,508.73,304.95,509.05z"/>
	<path class="st2" d="M241.89,213.59c0-6.53-0.03-12.52,0.01-18.5c0.13-20.46,18.78-32.55,37.56-24.38c0.6,0.26,1.22,0.44,1.85,0.67
		c3.54-14.11,12.35-22.19,24.82-22.86c12.48-0.68,20.78,6.2,27.19,22.56c9.13-3.53,18.14-4.75,27.01,0.98
		c7.94,5.14,11.93,12.47,11.96,21.72c0.07,20.12-0.19,40.23-0.3,60.35c-0.01,0.97,0.15,1.95,0.28,3.66c2-0.59,3.68-1.05,5.33-1.58
		c11.57-3.68,28.23,1.75,32.07,13.97c0.98,3.13,1.68,6.48,1.72,9.74c0.27,26.64,1,53.3,0.37,79.93
		c-1.21,50.4-38.98,93.36-88.3,100.59c-57.53,8.44-108.56-29-119.24-85.08c-1.14-6-1.35-12.25-1.37-18.38
		c-0.12-39.15,0.67-78.32-0.36-117.44c-0.53-20,18.12-35.01,36.83-26.76C239.89,213.03,240.53,213.16,241.89,213.59z M361.97,335.15
		c0-10.62,0-20.76,0-30.89c0-36.49,0.03-72.97-0.01-109.46c-0.01-10.22-6.82-16.79-16.62-16.31c-8.26,0.41-14.4,7.42-14.41,16.71
		c-0.04,32.49,0.09,64.99-0.16,97.48c-0.03,4.02,2.99,11.27-4.02,11.25c-6.46-0.02-3.82-7.05-3.84-11.02
		c-0.19-38.49,0.02-76.99-0.27-115.48c-0.03-4.37-1.49-9.35-3.92-12.94c-3.76-5.55-10.65-6.9-16.54-4.82
		c-6.24,2.2-10.39,7.84-10.4,14.96c-0.08,40.32-0.05,80.64-0.05,120.96c0,1.17,0.45,2.62-0.08,3.44c-1.11,1.71-2.74,3.08-4.15,4.6
		c-1.43-1.53-3.32-2.86-4.16-4.67c-0.7-1.52-0.2-3.6-0.2-5.43c0-32.33,0.01-64.66-0.02-96.98c0-2.32,0.05-4.73-0.55-6.93
		c-2.06-7.57-8.93-12.01-16.74-11.12c-7.66,0.88-13.46,7.52-13.48,16.03c-0.07,36.16-0.02,72.32-0.02,108.48
		c0,1.83,0.4,3.88-0.29,5.42c-0.7,1.55-2.81,3.82-3.79,3.59c-1.65-0.39-3.11-2.35-4.2-3.95c-0.54-0.8-0.1-2.27-0.1-3.43
		c0-22,0.14-43.99-0.13-65.99c-0.05-3.8-1.01-8.09-2.99-11.26c-3.73-5.96-11.02-7.73-17.65-5.41c-6.52,2.28-10.19,7.73-10.19,15.54
		c-0.03,39.99-0.2,79.99,0.03,119.98c0.33,56.32,49.83,99.35,104.36,93.18c45.92-5.2,81.52-42.39,83.68-88.64
		c0.84-17.96,0.33-35.98,0.34-53.98c0.01-9.96,0.26-19.95-0.38-29.87c-0.55-8.54-7.62-14.03-16.1-13.6
		c-8.61,0.44-14.91,6.48-14.87,14.49c0.09,18.61,0.28,37.22,0.42,55.83c0.01,1.5-0.01,3-0.14,4.49c-0.27,2.96-1.81,4.37-4.92,4.37
		c-3.32,0-6.68,0.15-9.95,0.68c-19.13,3.12-35.59,10.77-46.28,27.9c-1.6,2.57-3.71,4.34-6.53,2.77c-2.93-1.63-2.66-4.73-0.74-6.92
		c5.52-6.33,10.66-13.26,17.19-18.38C331.29,340.25,346.04,336.61,361.97,335.15z"/>
</g>
</svg>
